<?xml version="1.0" encoding="UTF-8" standalone="no"?>
<svg
   xmlns:dc="http://purl.org/dc/elements/1.1/"
   xmlns:cc="http://creativecommons.org/ns#"
   xmlns:rdf="http://www.w3.org/1999/02/22-rdf-syntax-ns#"
   xmlns:svg="http://www.w3.org/2000/svg"
   xmlns="http://www.w3.org/2000/svg"
   xmlns:sodipodi="http://sodipodi.sourceforge.net/DTD/sodipodi-0.dtd"
   xmlns:inkscape="http://www.inkscape.org/namespaces/inkscape"
   width="32"
   height="32"
   viewBox="0 0 8.4666665 8.4666669"
   version="1.1"
   id="svg8"
   sodipodi:docname="delete.svg"
   inkscape:version="1.0.1 (3bc2e813f5, 2020-09-07)">
  <defs
     id="defs2" />
  <sodipodi:namedview
     id="base"
     pagecolor="#ffffff"
     bordercolor="#666666"
     borderopacity="1.0"
     inkscape:pageopacity="0.0"
     inkscape:pageshadow="2"
     inkscape:zoom="26.21875"
     inkscape:cx="16.514899"
     inkscape:cy="16"
     inkscape:document-units="px"
     inkscape:current-layer="layer1"
     inkscape:document-rotation="0"
     showgrid="false"
     units="px"
     inkscape:snap-page="true"
     inkscape:window-width="1920"
     inkscape:window-height="1017"
     inkscape:window-x="0"
     inkscape:window-y="30"
     inkscape:window-maximized="1" />
  <metadata
     id="metadata5">
    <rdf:RDF>
      <cc:Work
         rdf:about="">
        <dc:format>image/svg+xml</dc:format>
        <dc:type
           rdf:resource="http://purl.org/dc/dcmitype/StillImage" />
        <dc:title />
      </cc:Work>
    </rdf:RDF>
  </metadata>
  <g
     inkscape:label="Layer 1"
     inkscape:groupmode="layer"
     id="layer1">
    <path
       id="rect857"
       style="fill:#4d4d4d;stroke-width:0.259603"
       d="m 2.5606314,2.087041 c -0.1209492,0 -0.2418627,0.046406 -0.3345404,0.1390837 -0.1853551,0.1853553 -0.1853552,0.4837256 0,0.6690809 L 3.5642527,4.2333673 2.226091,5.5715289 c -0.185355,0.1853553 -0.1853552,0.4837258 0,0.669081 0.1853553,0.1853549 0.4837258,0.1853549 0.6690809,0 L 4.2333336,4.9024482 5.5714953,6.2406099 c 0.1853551,0.1853549 0.4837257,0.1853549 0.6690809,0 0.1853551,-0.1853552 0.1853551,-0.4837257 0,-0.669081 L 4.9024145,4.2333673 6.2405762,2.8952056 c 0.1853551,-0.1853552 0.1853551,-0.4837257 0,-0.6690809 -0.1853552,-0.1853553 -0.4837258,-0.1853552 -0.6690809,0 L 4.2333336,3.5642865 2.8951719,2.2261247 C 2.8024943,2.1334472 2.6815808,2.087041 2.5606314,2.087041 Z" />
  </g>
</svg>
