<?xml version="1.0" encoding="UTF-8" standalone="no"?>
<svg
   xmlns:dc="http://purl.org/dc/elements/1.1/"
   xmlns:cc="http://creativecommons.org/ns#"
   xmlns:rdf="http://www.w3.org/1999/02/22-rdf-syntax-ns#"
   xmlns:svg="http://www.w3.org/2000/svg"
   xmlns="http://www.w3.org/2000/svg"
   xmlns:sodipodi="http://sodipodi.sourceforge.net/DTD/sodipodi-0.dtd"
   xmlns:inkscape="http://www.inkscape.org/namespaces/inkscape"
   width="32"
   height="32"
   viewBox="0 0 8.4666665 8.4666669"
   version="1.1"
   id="svg8"
   sodipodi:docname="plus.svg"
   inkscape:version="1.0.1 (3bc2e813f5, 2020-09-07)">
  <defs
     id="defs2" />
  <sodipodi:namedview
     id="base"
     pagecolor="#ffffff"
     bordercolor="#666666"
     borderopacity="1.0"
     inkscape:pageopacity="0.0"
     inkscape:pageshadow="2"
     inkscape:zoom="26.21875"
     inkscape:cx="16"
     inkscape:cy="16"
     inkscape:document-units="px"
     inkscape:current-layer="layer1"
     inkscape:document-rotation="0"
     showgrid="false"
     units="px"
     inkscape:snap-page="true"
     inkscape:window-width="1920"
     inkscape:window-height="1017"
     inkscape:window-x="0"
     inkscape:window-y="30"
     inkscape:window-maximized="1" />
  <metadata
     id="metadata5">
    <rdf:RDF>
      <cc:Work
         rdf:about="">
        <dc:format>image/svg+xml</dc:format>
        <dc:type
           rdf:resource="http://purl.org/dc/dcmitype/StillImage" />
        <dc:title />
      </cc:Work>
    </rdf:RDF>
  </metadata>
  <g
     inkscape:label="Layer 1"
     inkscape:groupmode="layer"
     id="layer1">
    <path
       id="rect831"
       style="fill:#f2f2f2;stroke-width:1.09337"
       d="M 16 0.81835938 C 15.232091 0.81835938 14.613281 1.4371696 14.613281 2.2050781 L 14.613281 14.613281 L 2.2050781 14.613281 C 1.4371696 14.613281 0.81835938 15.232091 0.81835938 16 C 0.81835937 16.767908 1.4371696 17.386719 2.2050781 17.386719 L 14.613281 17.386719 L 14.613281 29.794922 C 14.613281 30.56283 15.232091 31.181641 16 31.181641 C 16.767908 31.181641 17.386719 30.56283 17.386719 29.794922 L 17.386719 17.386719 L 29.794922 17.386719 C 30.56283 17.386719 31.181641 16.767908 31.181641 16 C 31.181641 15.232091 30.56283 14.613281 29.794922 14.613281 L 17.386719 14.613281 L 17.386719 2.2050781 C 17.386719 1.4371696 16.767908 0.81835938 16 0.81835938 z "
       transform="scale(0.26458333)" />
  </g>
</svg>
