<?xml version="1.0" encoding="UTF-8" standalone="no"?>
<svg
   xmlns:dc="http://purl.org/dc/elements/1.1/"
   xmlns:cc="http://creativecommons.org/ns#"
   xmlns:rdf="http://www.w3.org/1999/02/22-rdf-syntax-ns#"
   xmlns:svg="http://www.w3.org/2000/svg"
   xmlns="http://www.w3.org/2000/svg"
   xmlns:sodipodi="http://sodipodi.sourceforge.net/DTD/sodipodi-0.dtd"
   xmlns:inkscape="http://www.inkscape.org/namespaces/inkscape"
   width="32"
   height="32"
   viewBox="0 0 8.4666665 8.4666669"
   version="1.1"
   id="svg8"
   sodipodi:docname="checked.svg"
   inkscape:version="1.0.1 (3bc2e813f5, 2020-09-07)">
  <sodipodi:namedview
     pagecolor="#ffffff"
     bordercolor="#666666"
     borderopacity="1"
     objecttolerance="10"
     gridtolerance="10"
     guidetolerance="10"
     inkscape:pageopacity="0"
     inkscape:pageshadow="2"
     inkscape:window-width="1920"
     inkscape:window-height="1017"
     id="namedview8"
     showgrid="false"
     inkscape:zoom="26.21875"
     inkscape:cx="16"
     inkscape:cy="16"
     inkscape:window-x="0"
     inkscape:window-y="30"
     inkscape:window-maximized="1"
     inkscape:current-layer="svg8"
     inkscape:document-rotation="0" />
  <defs
     id="defs2" />
  <metadata
     id="metadata5">
    <rdf:RDF>
      <cc:Work
         rdf:about="">
        <dc:format>image/svg+xml</dc:format>
        <dc:type
           rdf:resource="http://purl.org/dc/dcmitype/StillImage" />
        <dc:title />
      </cc:Work>
    </rdf:RDF>
  </metadata>
  <g
     id="layer1"
     style="fill:#f9f9f9"
     transform="matrix(0.85130067,0,0,0.85130067,0.62949386,0.62949386)">
    <g
       aria-label="✔"
       id="text835"
       style="font-style:normal;font-weight:normal;font-size:12.7px;line-height:1.25;font-family:sans-serif;fill:#f9f9f9;fill-opacity:1;stroke:none;stroke-width:0.264583">
      <path
         d="m 1.7280602,3.8674645 q 0.2418457,0 0.3658691,0.396875 0.2480469,0.7441406 0.3534668,0.7441406 0.080615,0 0.1674316,-0.1240234 1.7425293,-2.561084 3.2246093,-3.646289 0.6263184,-0.45888673 1.2216309,-0.45888673 0.7875488,0 0.9487793,0.0496094 0.068213,0.0186035 0.068213,0.15502929 0,0.11162104 -0.142627,0.27905274 -3.9873534,4.5764647 -4.7500976,5.9531249 -0.2604492,0.471289 -1.2030273,0.471289 -0.3100586,0 -0.651123,-0.1612304 Q 1.1885582,7.4517418 0.83509142,6.5773766 0.38860705,5.473568 0.38860705,4.642611 q 0,-0.3038574 0.43408203,-0.5022949 Q 1.4180016,3.8674645 1.7156578,3.8674645 Z"
         style="font-size:12.7px;fill:#f9f9f9;stroke-width:0.264583"
         id="path832" />
    </g>
  </g>
</svg>
